<svg width="150" height="38" viewBox="0 0 150 38" fill="none" xmlns="http://www.w3.org/2000/svg">
<g clip-path="url(#clip0_187_2638)">
<path d="M14.8026 0.25L34.5395 9.1316V28.8684L14.8026 19.9869V0.25Z" fill="#00008B"/>
<path opacity="0.8" d="M9.86841 3.21045L29.6053 12.0921V31.8289L9.86841 22.9473V3.21045Z" fill="#0000B9"/>
<path opacity="0.8" d="M4.9342 6.17114L24.671 15.0527V34.7895L4.9342 25.908V6.17114Z" fill="#0000E7"/>
<path opacity="0.8" d="M0 9.13159L19.7369 18.0131V37.75L0 28.8684V9.13159Z" fill="#1616FF"/>
<path d="M51.3915 21.0098L54.263 23.1635C52.693 25.2503 50.587 26.2937 47.9452 26.2937C45.801 26.2937 44.0206 25.5949 42.6039 24.1973C41.1871 22.7997 40.4788 21.0863 40.4788 19.057C40.4788 17.0276 41.1967 15.3142 42.6326 13.9166C44.0684 12.4999 45.8489 11.7915 47.9739 11.7915C49.1609 11.7915 50.2615 12.05 51.2765 12.5669C52.31 13.0646 53.162 13.7347 53.832 14.5771L51.19 16.9032C50.348 15.7928 49.2758 15.2376 47.9739 15.2376C46.9018 15.2376 46.002 15.6109 45.2745 16.3576C44.5662 17.0851 44.212 17.9848 44.212 19.057C44.212 20.1482 44.5662 21.0576 45.2745 21.7851C46.002 22.4935 46.9306 22.8477 48.0601 22.8477C48.7685 22.8477 49.4098 22.6754 49.9841 22.3307C50.5775 21.9669 51.0465 21.5267 51.3915 21.0098ZM57.1255 24.1973C55.7085 22.7997 55 21.0863 55 19.057C55 17.0276 55.7085 15.3142 57.1255 13.9166C58.542 12.4999 60.3035 11.7915 62.4095 11.7915C64.515 11.7915 66.2765 12.4999 67.693 13.9166C69.11 15.3142 69.8185 17.0276 69.8185 19.057C69.8185 21.0863 69.11 22.7997 67.693 24.1973C66.2765 25.5949 64.515 26.2937 62.4095 26.2937C60.3035 26.2937 58.542 25.5949 57.1255 24.1973ZM59.7675 16.3576C59.078 17.0851 58.7335 17.9848 58.7335 19.057C58.7335 20.1291 59.078 21.0289 59.7675 21.7564C60.4565 22.4839 61.337 22.8477 62.4095 22.8477C63.4815 22.8477 64.362 22.4839 65.051 21.7564C65.7405 21.0289 66.085 20.1291 66.085 19.057C66.085 17.9848 65.7405 17.0851 65.051 16.3576C64.362 15.6109 63.4815 15.2376 62.4095 15.2376C61.337 15.2376 60.4565 15.6109 59.7675 16.3576ZM75.722 26.0065H71.9885V12.0787H75.578V13.1987C76.631 12.2606 77.885 11.7915 79.34 11.7915C81.2545 11.7915 82.815 12.519 84.021 13.974C85.3995 12.519 87.046 11.7915 88.9605 11.7915C89.9175 11.7915 90.827 11.9925 91.6885 12.3946C92.569 12.7966 93.287 13.3423 93.842 14.0315C94.7805 15.1802 95.2495 16.7117 95.2495 18.6262V26.0065H91.516V18.4826C91.516 17.4105 91.2865 16.616 90.827 16.0991C90.31 15.5247 89.6115 15.2376 88.7305 15.2376C88.003 15.2376 87.333 15.429 86.7205 15.8119C86.127 16.1948 85.677 16.616 85.3705 17.0755C85.4475 17.6881 85.4855 18.205 85.4855 18.6262V26.0065H81.7525V18.4826C81.7525 17.4105 81.5225 16.616 81.063 16.0991C80.546 15.5247 79.8475 15.2376 78.967 15.2376C77.703 15.2376 76.6215 15.8119 75.722 16.9606V26.0065ZM96.91 24.427L98.7195 21.7564C99.734 22.6754 101.007 23.1348 102.539 23.1348C103.036 23.1348 103.458 23.0295 103.802 22.8189C104.148 22.5892 104.319 22.302 104.319 21.9574C104.319 21.5745 104.089 21.2491 103.63 20.981C103.171 20.713 102.606 20.4737 101.936 20.2631C101.285 20.0525 100.625 19.8132 99.9545 19.5451C99.284 19.258 98.7195 18.8272 98.26 18.2529C97.8005 17.6594 97.5705 16.9511 97.5705 16.1279C97.5705 14.8452 98.097 13.8017 99.15 12.9976C100.223 12.1936 101.476 11.7915 102.912 11.7915C103.774 11.7915 104.655 11.9351 105.554 12.2223C106.454 12.4903 107.144 12.8158 107.622 13.1987L105.871 15.8981C104.989 15.2663 104.099 14.9504 103.199 14.9504C102.663 14.9504 102.213 15.0557 101.85 15.2663C101.486 15.4577 101.305 15.7258 101.305 16.0704C101.305 16.3958 101.533 16.6734 101.993 16.9032C102.453 17.1329 103.018 17.3531 103.688 17.5637C104.358 17.7743 105.018 18.0328 105.669 18.3391C106.339 18.6262 106.904 19.0857 107.364 19.7175C107.823 20.3301 108.053 21.0863 108.053 21.9861C108.053 23.2688 107.507 24.3122 106.415 25.1163C105.344 25.9012 104.042 26.2937 102.51 26.2937C100.462 26.2937 98.595 25.6715 96.91 24.427ZM114.244 12.0787V26.0065H110.511V12.0787H114.244ZM110.654 8.8337C110.175 8.3742 109.936 7.80945 109.936 7.1394C109.936 6.4693 110.175 5.90455 110.654 5.44505C111.132 4.98559 111.707 4.75586 112.377 4.75586C113.047 4.75586 113.621 4.98559 114.1 5.44505C114.579 5.90455 114.818 6.4693 114.818 7.1394C114.818 7.80945 114.579 8.3742 114.1 8.8337C113.621 9.29315 113.047 9.5229 112.377 9.5229C111.707 9.5229 111.132 9.29315 110.654 8.8337ZM130.926 12.0787V25.2311C130.926 27.4902 130.505 29.2132 129.662 30.4002C129.031 31.2809 128.169 31.9605 127.078 32.4391C126.006 32.9369 124.809 33.1858 123.489 33.1858C122.167 33.1858 120.894 32.9177 119.669 32.3817C118.463 31.8456 117.505 31.1565 116.797 30.3141L119.152 27.8731C120.396 29.2132 121.842 29.8833 123.489 29.8833C124.752 29.8833 125.699 29.51 126.331 28.7633C126.905 28.1316 127.192 27.0403 127.192 25.4896V25.0301C126.102 25.8725 124.857 26.2937 123.459 26.2937C122.445 26.2937 121.469 26.0831 120.53 25.6619C119.593 25.2407 118.807 24.6664 118.176 23.9389C117.008 22.5796 116.424 20.9523 116.424 19.057C116.424 17.0085 117.084 15.2854 118.405 13.8879C119.746 12.4903 121.363 11.7915 123.259 11.7915C124.829 11.7915 126.188 12.2606 127.336 13.1987V12.0787H130.926ZM127.192 21.1246V16.9606C126.331 15.8119 125.182 15.2376 123.746 15.2376C122.693 15.2376 121.832 15.6205 121.162 16.3863C120.492 17.1329 120.157 18.0231 120.157 19.057C120.157 20.1482 120.502 21.0576 121.191 21.7851C121.899 22.4935 122.78 22.8477 123.833 22.8477C125.269 22.8477 126.389 22.2733 127.192 21.1246ZM137.986 26.0065H134.253V12.0787H137.843V13.1987C138.992 12.2606 140.304 11.7915 141.777 11.7915C143.75 11.7915 145.357 12.5382 146.602 14.0315C147.559 15.161 148.037 16.7883 148.037 18.9134V26.0065H144.304V18.6262C144.304 17.4392 144.027 16.5682 143.471 16.0129C142.955 15.496 142.255 15.2376 141.375 15.2376C140.667 15.2376 139.997 15.4195 139.365 15.7832C138.752 16.1278 138.293 16.5203 137.986 16.9606V26.0065Z" fill="white"/>
</g>
<defs>
<clipPath id="clip0_187_2638">
<rect width="150" height="37.5" fill="white" transform="translate(0 0.25)"/>
</clipPath>
</defs>
</svg>
