<svg width="200" height="82" viewBox="0 0 200 82" fill="none" xmlns="http://www.w3.org/2000/svg">
<g clip-path="url(#clip0_187_2637)">
<path d="M39.8026 22.25L59.5395 31.1316V50.8684L39.8026 41.9869V22.25Z" fill="#00008B"/>
<path opacity="0.8" d="M34.8684 25.2104L54.6053 34.0921V53.8289L34.8684 44.9473V25.2104Z" fill="#0000B9"/>
<path opacity="0.8" d="M29.9342 28.1711L49.671 37.0527V56.7895L29.9342 47.908V28.1711Z" fill="#0000E7"/>
<path opacity="0.8" d="M25 31.1316L44.7369 40.0131V59.75L25 50.8684V31.1316Z" fill="#1616FF"/>
<path d="M76.3915 43.0098L79.263 45.1635C77.693 47.2503 75.587 48.2937 72.9452 48.2937C70.801 48.2937 69.0206 47.5949 67.6039 46.1973C66.1871 44.7997 65.4788 43.0863 65.4788 41.057C65.4788 39.0276 66.1967 37.3142 67.6326 35.9166C69.0684 34.4999 70.8489 33.7915 72.9739 33.7915C74.1609 33.7915 75.2615 34.05 76.2765 34.5669C77.31 35.0646 78.162 35.7347 78.832 36.5771L76.19 38.9032C75.348 37.7928 74.2758 37.2376 72.9739 37.2376C71.9018 37.2376 71.002 37.6109 70.2745 38.3576C69.5662 39.0851 69.212 39.9848 69.212 41.057C69.212 42.1482 69.5662 43.0576 70.2745 43.7851C71.002 44.4935 71.9306 44.8477 73.0601 44.8477C73.7685 44.8477 74.4098 44.6754 74.9841 44.3307C75.5775 43.9669 76.0465 43.5267 76.3915 43.0098ZM82.1255 46.1973C80.7085 44.7997 80 43.0863 80 41.057C80 39.0276 80.7085 37.3142 82.1255 35.9166C83.542 34.4999 85.3035 33.7915 87.4095 33.7915C89.515 33.7915 91.2765 34.4999 92.693 35.9166C94.11 37.3142 94.8185 39.0276 94.8185 41.057C94.8185 43.0863 94.11 44.7997 92.693 46.1973C91.2765 47.5949 89.515 48.2937 87.4095 48.2937C85.3035 48.2937 83.542 47.5949 82.1255 46.1973ZM84.7675 38.3576C84.078 39.0851 83.7335 39.9848 83.7335 41.057C83.7335 42.1291 84.078 43.0289 84.7675 43.7564C85.4565 44.4839 86.337 44.8477 87.4095 44.8477C88.4815 44.8477 89.362 44.4839 90.051 43.7564C90.7405 43.0289 91.085 42.1291 91.085 41.057C91.085 39.9848 90.7405 39.0851 90.051 38.3576C89.362 37.6109 88.4815 37.2376 87.4095 37.2376C86.337 37.2376 85.4565 37.6109 84.7675 38.3576ZM100.722 48.0065H96.9885V34.0787H100.578V35.1987C101.631 34.2606 102.885 33.7915 104.34 33.7915C106.255 33.7915 107.815 34.519 109.021 35.974C110.4 34.519 112.046 33.7915 113.961 33.7915C114.918 33.7915 115.827 33.9925 116.689 34.3946C117.569 34.7966 118.287 35.3423 118.842 36.0315C119.781 37.1802 120.25 38.7117 120.25 40.6262V48.0065H116.516V40.4826C116.516 39.4105 116.287 38.616 115.827 38.0991C115.31 37.5247 114.612 37.2376 113.731 37.2376C113.003 37.2376 112.333 37.429 111.721 37.8119C111.127 38.1948 110.677 38.616 110.371 39.0755C110.448 39.6881 110.486 40.205 110.486 40.6262V48.0065H106.753V40.4826C106.753 39.4105 106.523 38.616 106.063 38.0991C105.546 37.5247 104.848 37.2376 103.967 37.2376C102.703 37.2376 101.622 37.8119 100.722 38.9606V48.0065ZM121.91 46.427L123.72 43.7564C124.734 44.6754 126.007 45.1348 127.539 45.1348C128.036 45.1348 128.458 45.0295 128.802 44.8189C129.148 44.5892 129.319 44.302 129.319 43.9574C129.319 43.5745 129.089 43.2491 128.63 42.981C128.171 42.713 127.606 42.4737 126.936 42.2631C126.285 42.0525 125.625 41.8132 124.955 41.5451C124.284 41.258 123.72 40.8272 123.26 40.2529C122.801 39.6594 122.571 38.9511 122.571 38.1279C122.571 36.8452 123.097 35.8017 124.15 34.9976C125.223 34.1936 126.476 33.7915 127.912 33.7915C128.774 33.7915 129.655 33.9351 130.554 34.2223C131.454 34.4903 132.144 34.8158 132.622 35.1987L130.871 37.8981C129.989 37.2663 129.099 36.9504 128.199 36.9504C127.663 36.9504 127.213 37.0557 126.85 37.2663C126.486 37.4577 126.305 37.7258 126.305 38.0704C126.305 38.3958 126.533 38.6734 126.993 38.9032C127.453 39.1329 128.018 39.3531 128.688 39.5637C129.358 39.7743 130.018 40.0328 130.669 40.3391C131.339 40.6262 131.904 41.0857 132.364 41.7175C132.823 42.3301 133.053 43.0863 133.053 43.9861C133.053 45.2688 132.507 46.3122 131.415 47.1163C130.344 47.9012 129.042 48.2937 127.51 48.2937C125.462 48.2937 123.595 47.6715 121.91 46.427ZM139.244 34.0787V48.0065H135.511V34.0787H139.244ZM135.654 30.8337C135.175 30.3742 134.936 29.8094 134.936 29.1394C134.936 28.4693 135.175 27.9045 135.654 27.445C136.132 26.9856 136.707 26.7559 137.377 26.7559C138.047 26.7559 138.621 26.9856 139.1 27.445C139.579 27.9045 139.818 28.4693 139.818 29.1394C139.818 29.8094 139.579 30.3742 139.1 30.8337C138.621 31.2931 138.047 31.5229 137.377 31.5229C136.707 31.5229 136.132 31.2931 135.654 30.8337ZM155.926 34.0787V47.2311C155.926 49.4902 155.505 51.2132 154.662 52.4002C154.031 53.2809 153.169 53.9605 152.078 54.4391C151.006 54.9369 149.809 55.1858 148.489 55.1858C147.167 55.1858 145.894 54.9177 144.669 54.3817C143.463 53.8456 142.505 53.1565 141.797 52.3141L144.152 49.8731C145.396 51.2132 146.842 51.8833 148.489 51.8833C149.752 51.8833 150.699 51.51 151.331 50.7633C151.905 50.1316 152.192 49.0403 152.192 47.4896V47.0301C151.102 47.8725 149.857 48.2937 148.459 48.2937C147.445 48.2937 146.469 48.0831 145.53 47.6619C144.593 47.2407 143.807 46.6664 143.176 45.9389C142.008 44.5796 141.424 42.9523 141.424 41.057C141.424 39.0085 142.084 37.2854 143.405 35.8879C144.746 34.4903 146.363 33.7915 148.259 33.7915C149.829 33.7915 151.188 34.2606 152.336 35.1987V34.0787H155.926ZM152.192 43.1246V38.9606C151.331 37.8119 150.182 37.2376 148.746 37.2376C147.693 37.2376 146.832 37.6205 146.162 38.3863C145.492 39.1329 145.157 40.0231 145.157 41.057C145.157 42.1482 145.502 43.0576 146.191 43.7851C146.899 44.4935 147.78 44.8477 148.833 44.8477C150.269 44.8477 151.389 44.2733 152.192 43.1246ZM162.986 48.0065H159.253V34.0787H162.843V35.1987C163.992 34.2606 165.304 33.7915 166.777 33.7915C168.75 33.7915 170.357 34.5382 171.602 36.0315C172.559 37.161 173.037 38.7883 173.037 40.9134V48.0065H169.304V40.6262C169.304 39.4392 169.027 38.5682 168.471 38.0129C167.955 37.496 167.255 37.2376 166.375 37.2376C165.667 37.2376 164.997 37.4195 164.365 37.7832C163.752 38.1278 163.293 38.5203 162.986 38.9606V48.0065Z" fill="white"/>
</g>
<defs>
<clipPath id="clip0_187_2637">
<rect width="150" height="37.5" fill="white" transform="translate(25 22.25)"/>
</clipPath>
</defs>
</svg>
